#!OML:ASF X:\für Bonn\!DataBase\2005_08_12_Daniel\c3d\Daniel.ASF
:FULLY-SPECIFIED
:DEGREES
260
root 0.91678 16.5719 -18.014 199.224 153.913 -170.883
lowerback 77.2898 -5.27649 8.99527
upperback 9.79767 1.73749 -4.46716
thorax -9.21808 1.81326 -9.6621
lowerneck 0.428529 -8.81083 -2.97311
upperneck 3.62925 -11.8133 6.41
head 1.68573 -5.81867 2.3317
rclavicle -1.27222e-014 -5.21313e-014
rhumerus 34.0974 -0.809437 -67.8733
rradius 13.8119
rwrist 35.12
rhand -26.828 14.4323
rfingers 7.12502
rthumb -0.253981 -15.5473
lclavicle -1.27222e-014 -5.21313e-014
lhumerus -22.9619 -13.1357 92.6222
lradius 55.3107
lwrist 11.2134
lhand -11.7195 -10.2597
lfingers 7.12502
lthumb 14.3273 19.226
rfemur -50.9785 -7.40327 8.38611
rtibia 62.0818
rfoot -27.0502 -12.4648
rtoes -14.9152
lfemur -54.7551 -8.92539 -21.2109
ltibia 53.8572
lfoot -13.9897 -17.5727
ltoes -10.1976
261
root 0.920521 16.6025 -18.0099 198.796 154.201 -171.124
lowerback 76.6469 -5.20957 8.88644
upperback 9.95032 1.6147 -4.54308
thorax -9.13937 1.76304 -9.65993
lowerneck 0.413239 -8.73526 -2.96666
upperneck 3.54584 -11.7131 6.37004
head 1.65261 -5.77228 2.32168
rclavicle -6.36111e-015 5.8306e-014
rhumerus 33.1404 0.0423718 -68.0484
rradius 13.8947
rwrist 34.6695
rhand -26.9997 14.5715
rfingers 7.12502
rthumb -0.419759 -15.4079
lclavicle -6.36111e-015 5.8306e-014
lhumerus -22.7721 -12.7324 92.4215
lradius 54.6907
lwrist 10.6603
lhand -11.7613 -10.3138
lfingers 7.12502
lthumb 14.287 19.1747
rfemur -50.3409 -7.20481 8.56058
rtibia 61.4526
rfoot -26.8026 -12.3151
rtoes -14.7187
lfemur -54.1098 -8.96306 -20.9777
ltibia 53.5061
lfoot -14.0533 -17.1387
ltoes -10.4499
262
root 0.924639 16.6334 -18.0048 198.33 154.491 -171.377
lowerback 76.02 -5.15367 8.818
upperback 10.0995 1.51379 -4.62418
thorax -9.05421 1.72296 -9.68797
lowerneck 0.381536 -8.67593 -2.88022
upperneck 3.46767 -11.6327 6.27031
head 1.61537 -5.73488 2.27745
rclavicle 7.63333e-014 5.94615e-014
rhumerus 32.1697 0.901678 -68.1525
rradius 13.9871
rwrist 34.0396
rhand -27.1429 14.6206
rfingers 7.12502
rthumb -0.558089 -15.3584
lclavicle 7.63333e-014 5.94615e-014
lhumerus -22.5754 -12.3472 92.2226
lradius 54.0686
lwrist 10.0463
lhand -11.7608 -10.3335
lfingers 7.12502
lthumb 14.2875 19.155
rfemur -49.6592 -7.01142 8.74998
rtibia 60.8173
rfoot -26.5819 -12.1257
rtoes -14.5321
lfemur -53.4318 -8.97437 -20.7526
ltibia 53.1542
lfoot -14.1051 -16.7317
ltoes -10.6006
263
root 0.929528 16.6649 -17.9996 197.859 154.802 -171.639
lowerback 75.4166 -5.07493 8.71126
upperback 10.2084 1.41472 -4.68151
thorax -9.01463 1.67446 -9.67381
lowerneck 0.425234 -8.60101 -2.87838
upperneck 3.36212 -11.5304 6.17252
head 1.56117 -5.68906 2.25281
rclavicle -8.5875e-014 -9.0944e-015
rhumerus 31.1792 1.76489 -68.2948
rradius 14.0633
rwrist 33.3562
rhand -27.1528 14.6889
rfingers 7.12502
rthumb -0.56762 -15.2901
lclavicle -8.5875e-014 -9.0944e-015
lhumerus -22.4127 -11.8845 92.0406
lradius 53.4114
lwrist 9.43949
lhand -11.746 -10.3887
lfingers 7.12502
lthumb 14.3017 19.0987
rfemur -48.9709 -6.78546 8.94081
rtibia 60.1871
rfoot -26.3614 -11.9708
rtoes -14.3456
lfemur -52.7401 -9.00394 -20.5127
ltibia 52.8002
lfoot -14.1533 -16.2809
ltoes -10.7833
264
root 0.934197 16.6953 -17.9923 197.377 155.093 -171.878
lowerback 74.8313 -5.03745 8.63325
upperback 10.3101 1.29621 -4.75955
thorax -8.98031 1.62022 -9.68651
lowerneck 0.435287 -8.52721 -2.85476
upperneck 3.2732 -11.4308 6.09139
head 1.51829 -5.64324 2.22782
rclavicle 0 -2.94201e-014
rhumerus 30.2018 2.54236 -68.5073
rradius 14.1033
rwrist 32.6922
rhand -27.1558 14.7097
rfingers 7.12502
rthumb -0.570603 -15.2693
lclavicle 0 -2.94201e-014
lhumerus -22.258 -11.4018 91.8387
lradius 52.7915
lwrist 8.83903
lhand -11.6755 -10.3874
lfingers 7.12502
lthumb 14.3697 19.0953
rfemur -48.2512 -6.61357 9.13228
rtibia 59.5531
rfoot -26.1186 -11.7877
rtoes -14.1412
lfemur -52.0106 -9.02949 -20.3036
ltibia 52.4388
lfoot -14.2345 -15.8658
ltoes -10.9438
265
root 0.939754 16.7263 -17.9843 196.88 155.404 -172.122
lowerback 74.2757 -4.98461 8.55052
upperback 10.3643 1.19342 -4.83137
thorax -8.99532 1.56553 -9.6978
lowerneck 0.581127 -8.45123 -2.80633
upperneck 3.10833 -11.325 5.97761
head 1.42352 -5.59738 2.1962
rclavicle -5.08889e-014 -1.0138e-014
rhumerus 29.1434 3.11871 -68.8679
rradius 14.1245
rwrist 32.2665
rhand -27.0848 14.7709
rfingers 7.12502
rthumb -0.502016 -15.2082
lclavicle -5.08889e-014 -1.0138e-014
lhumerus -22.1747 -10.8968 91.6417
lradius 52.1729
lwrist 8.2648
lhand -11.6307 -10.435
lfingers 7.12502
lthumb 14.4129 19.0445
rfemur -47.5258 -6.46004 9.33865
rtibia 58.9314
rfoot -25.8718 -11.6277
rtoes -14.0732
lfemur -51.2599 -9.06862 -20.0838
ltibia 52.0758
lfoot -14.2882 -15.4341
ltoes -11.1149
266
root 0.944993 16.7571 -17.9749 196.38 155.678 -172.373
lowerback 73.6964 -4.95909 8.49951
upperback 10.3963 1.0856 -4.89419
thorax -9.03456 1.50452 -9.70859
lowerneck 0.714795 -8.37371 -2.79718
upperneck 3.03035 -11.2189 5.86415
head 1.3618 -5.54928 2.16881
rclavicle 2.22639e-014 -1.14898e-013
rhumerus 28.07 3.33731 -69.4917
rradius 14.05
rwrist 32.2815
rhand -26.962 14.8706
rfingers 7.12502
rthumb -0.383346 -15.1088
lclavicle 2.22639e-014 -1.14898e-013
lhumerus -22.1285 -10.3529 91.4491
lradius 51.5322
lwrist 7.66851
lhand -11.5708 -10.4698
lfingers 7.12502
lthumb 14.4706 19.0056
rfemur -46.7783 -6.29668 9.55467
rtibia 58.3025
rfoot -25.6428 -11.4706
rtoes -13.976
lfemur -50.4966 -9.14011 -19.8512
ltibia 51.6959
lfoot -14.3303 -14.9928
ltoes -11.1978
267
root 0.949722 16.7882 -17.9628 195.906 155.957 -172.603
lowerback 73.09 -4.8986 8.40707
upperback 10.3975 0.98529 -4.93435
thorax -9.11159 1.43872 -9.67988
lowerneck 0.88821 -8.2791 -2.84026
upperneck 2.95802 -11.0912 5.78258
head 1.29985 -5.49086 2.16247
rclavicle 2.54444e-014 -3.97569e-014
rhumerus 26.9351 3.50344 -70.1462
rradius 13.9445
rwrist 32.4306
rhand -26.868 15.0981
rfingers 7.12502
rthumb -0.292623 -14.8815
lclavicle 2.54444e-014 -3.97569e-014
lhumerus -22.1473 -9.75522 91.264
lradius 50.8987
lwrist 7.11816
lhand -11.4815 -10.5348
lfingers 7.12502
lthumb 14.5566 18.9345
rfemur -46.0434 -6.14636 9.75738
rtibia 57.6833
rfoot -25.4102 -11.3324
rtoes -13.8884
lfemur -49.7383 -9.19257 -19.6455
ltibia 51.3146
lfoot -14.4049 -14.5804
ltoes -11.4134
